# xmcd
#
# Track frame offsets:
#   150
#   12993
#   29877
#   40874
#   54941
#   75232
#   91933
#   111824
#   128256
#   145663
#   160006
#   174433
#   188565
#   203302
#   215064
#
# Disc length: 3115 seconds
#
# Revision: 0
# Processed by: cddbd v1.5.2PL0 Copyright (c) Steve Scherf et al.
# Submitted via: uFREEDB ActiveX Control 1.5
#
DISCID=b10c290f
DTITLE=Paulo Cézar e Vanderley - Viola Pagodeira
DYEAR=2006
DGENRE=Country
TTITLE0=moreninha cor de jambo
TTITLE1=prisioneiro
TTITLE2=amigo da onça
TTITLE3=a cópia da chave
TTITLE4=seleção de pagode
TTITLE5=relógio quebrado
TTITLE6=pra voltar aos meus braços
TTITLE7=só quero te dizer
TTITLE8=gosto e desgosto
TTITLE9=saudade dela
TTITLE10=rodeio da paixão
TTITLE11=cerveja quente
TTITLE12=pagode do rei
TTITLE13=aonde eu moro
TTITLE14=violeiro solteiro
EXTD=
EXTT0=
EXTT1=
EXTT2=
EXTT3=
EXTT4=
EXTT5=
EXTT6=
EXTT7=
EXTT8=
EXTT9=
EXTT10=
EXTT11=
EXTT12=
EXTT13=
EXTT14=
PLAYORDER=
